<?xml version="1.0" encoding="UTF-8" standalone="no"?>
<!-- Created with Inkscape (http://www.inkscape.org/) -->

<svg
   xmlns:dc="http://purl.org/dc/elements/1.1/"
   xmlns:cc="http://creativecommons.org/ns#"
   xmlns:rdf="http://www.w3.org/1999/02/22-rdf-syntax-ns#"
   xmlns:svg="http://www.w3.org/2000/svg"
   xmlns="http://www.w3.org/2000/svg"
   xmlns:sodipodi="http://sodipodi.sourceforge.net/DTD/sodipodi-0.dtd"
   xmlns:inkscape="http://www.inkscape.org/namespaces/inkscape"
   width="1073.6221"
   height="765.35431"
   id="svg2"
   sodipodi:version="0.32"
   inkscape:version="0.48.2 r9819"
   version="1.0"
   sodipodi:docname="omslag.svg"
   inkscape:output_extension="org.inkscape.output.svg.inkscape">
  <sodipodi:namedview
     id="base"
     pagecolor="#ffffff"
     bordercolor="#666666"
     borderopacity="1.0"
     gridtolerance="10000"
     guidetolerance="10"
     objecttolerance="10"
     inkscape:pageopacity="0.0"
     inkscape:pageshadow="2"
     inkscape:zoom="1.2440213"
     inkscape:cx="270.76769"
     inkscape:cy="372.73822"
     inkscape:document-units="mm"
     inkscape:current-layer="layer1"
     width="303mm"
     height="216mm"
     units="mm"
     showguides="true"
     inkscape:guide-bbox="true"
     inkscape:window-width="2560"
     inkscape:window-height="1308"
     inkscape:window-x="0"
     inkscape:window-y="0"
     inkscape:guide-points="true"
     inkscape:grid-points="true"
     showgrid="false"
     inkscape:window-maximized="1">
    <sodipodi:guide
       orientation="horizontal"
       position="754.72441"
       id="guide2160" />
    <sodipodi:guide
       orientation="horizontal"
       position="10.629921"
       id="guide2162" />
    <sodipodi:guide
       orientation="vertical"
       position="10.629921"
       id="guide2164" />
    <sodipodi:guide
       orientation="vertical"
       position="1062.9921"
       id="guide2166" />
    <sodipodi:guide
       orientation="vertical"
       position="536.81102"
       id="guide3155" />
  </sodipodi:namedview>
  <defs
     id="defs4">
    <marker
       inkscape:stockid="Arrow2Mend"
       orient="auto"
       refY="0"
       refX="0"
       id="Arrow2Mend"
       style="overflow:visible">
      <path
         id="path3166"
         style="font-size:12px;fill-rule:evenodd;stroke-width:0.625;stroke-linejoin:round"
         d="M 8.7185878,4.0337352 L -2.2072895,0.016013256 L 8.7185884,-4.0017078 C 6.97309,-1.6296469 6.9831476,1.6157441 8.7185878,4.0337352 z "
         transform="scale(-0.6,-0.6)" />
    </marker>
    <linearGradient
       id="linearGradient3147">
      <stop
         offset="0"
         style="stop-color:#ff8000;stop-opacity:1;"
         id="stop3149" />
      <stop
         offset="1"
         style="stop-color:#ff8000;stop-opacity:0;"
         id="stop3151" />
    </linearGradient>
    <linearGradient
       id="linearGradient3159">
      <stop
         offset="0"
         style="stop-color:#ff8000;stop-opacity:1;"
         id="stop3161" />
      <stop
         offset="1"
         style="stop-color:#ff8000;stop-opacity:0;"
         id="stop3163" />
    </linearGradient>
  </defs>
  <metadata
     id="metadata7">
    <rdf:RDF>
      <cc:Work
         rdf:about="">
        <dc:format>image/svg+xml</dc:format>
        <dc:type
           rdf:resource="http://purl.org/dc/dcmitype/StillImage" />
        <dc:title>Formelsamling omslag</dc:title>
        <dc:creator>
          <cc:Agent>
            <dc:title>Frank Bille</dc:title>
          </cc:Agent>
        </dc:creator>
        <dc:rights>
          <cc:Agent>
            <dc:title>Frank Bille</dc:title>
          </cc:Agent>
        </dc:rights>
        <dc:language>Dansk</dc:language>
        <cc:license
           rdf:resource="http://creativecommons.org/licenses/by-sa/4.0/" />
      </cc:Work>
      <cc:License
         rdf:about="http://creativecommons.org/licenses/by-sa/4.0/">
        <cc:permits
           rdf:resource="http://creativecommons.org/ns#Reproduction" />
        <cc:permits
           rdf:resource="http://creativecommons.org/ns#Distribution" />
        <cc:requires
           rdf:resource="http://creativecommons.org/ns#Notice" />
        <cc:requires
           rdf:resource="http://creativecommons.org/ns#Attribution" />
        <cc:permits
           rdf:resource="http://creativecommons.org/ns#DerivativeWorks" />
        <cc:requires
           rdf:resource="http://creativecommons.org/ns#ShareAlike" />
      </cc:License>
    </rdf:RDF>
  </metadata>
  <g
     inkscape:label="Layer 1"
     id="layer1"
     inkscape:groupmode="layer">
    <rect
       style="fill:#ff8000;fill-opacity:1;stroke:none;stroke-width:1.64117873;stroke-linecap:round;stroke-miterlimit:4;stroke-dasharray:1.64117875, 3.28235752;stroke-dashoffset:0;stroke-opacity:0.50196078"
       transform="matrix(0,-1,1,0,0,0)"
       y="0"
       x="-765.35431"
       height="1073.6221"
       width="765.35431"
       id="rect2174" />
    <rect
       style="fill:none;fill-opacity:1;stroke:none;stroke-width:5.6499114;stroke-linecap:round;stroke-miterlimit:4;stroke-dasharray:5.6499119, 11.29982383;stroke-dashoffset:0;stroke-opacity:0.50196078"
       y="10.629899"
       x="538.24261"
       height="742.6629"
       width="524.74951"
       id="rect3161" />
    <g
       id="g8244"
       transform="translate(-8.2283465,-21.771654)">
      <path
         sodipodi:nodetypes="czzzzzzzzzzzzzzz"
         id="path6302"
         d="M -40,585.35431 C -20,565.35431 0,505.35431 40,505.35431 C 80,505.35431 80,585.35431 120,585.35431 C 160,585.35431 160,505.35431 200,505.35431 C 240,505.35431 240,585.35431 280,585.35431 C 320,585.35431 320,505.35431 360,505.35431 C 400,505.35431 400,585.35431 440,585.35431 C 480,585.35431 480,505.35431 520,505.35431 C 560,505.35431 560,585.35431 600,585.35431 C 640,585.35431 640,505.35431 680,505.35431 C 720,505.35431 720,585.35431 760,585.35431 C 800,585.35431 800,505.35431 840,505.35431 C 880,505.35431 880,585.35431 920,585.35431 C 960,585.35431 960,505.35431 1000,505.35431 C 1040,505.35431 1040,585.35431 1080,585.35431 C 1120,585.35431 1140,525.35431 1160,505.35431"
         style="fill:none;fill-rule:evenodd;stroke:#ffffff;stroke-width:3.54330707;stroke-linecap:round;stroke-linejoin:miter;stroke-miterlimit:4;stroke-dasharray:none;stroke-opacity:0.50196078" />
      <path
         style="fill:none;fill-rule:evenodd;stroke:#ffffff;stroke-width:3.54330707;stroke-linecap:round;stroke-linejoin:miter;stroke-miterlimit:4;stroke-dasharray:none;stroke-opacity:0.50196078"
         d="M -21.771654,585.35431 C -1.7716535,565.35431 18.228346,505.35431 58.228346,505.35431 C 98.228346,505.35431 98.228346,585.35431 138.22835,585.35431 C 178.22835,585.35431 178.22835,505.35431 218.22835,505.35431 C 258.22835,505.35431 258.22835,585.35431 298.22835,585.35431 C 338.22835,585.35431 338.22835,505.35431 378.22835,505.35431 C 418.22835,505.35431 418.22835,585.35431 458.22835,585.35431 C 498.22835,585.35431 498.22835,505.35431 538.22835,505.35431 C 578.22835,505.35431 578.22835,585.35431 618.22835,585.35431 C 658.22835,585.35431 658.22835,505.35431 698.22835,505.35431 C 738.22835,505.35431 738.22835,585.35431 778.22835,585.35431 C 818.22835,585.35431 818.22835,505.35431 858.22835,505.35431 C 898.22835,505.35431 898.22835,585.35431 938.22835,585.35431 C 978.22835,585.35431 978.22835,505.35431 1018.2283,505.35431 C 1058.2283,505.35431 1058.2283,585.35431 1098.2283,585.35431 C 1138.2283,585.35431 1158.2283,525.35431 1178.2283,505.35431"
         id="path7273"
         sodipodi:nodetypes="czzzzzzzzzzzzzzz" />
    </g>
    <g
       transform="matrix(2.2445835,0,0,2.2445835,-686.53842,-798.5223)"
       id="g8248"
       style="stroke:#ffffff;stroke-opacity:0.2">
      <path
         style="fill:none;fill-rule:evenodd;stroke:#ffffff;stroke-width:3.54330707;stroke-linecap:round;stroke-linejoin:miter;stroke-miterlimit:4;stroke-dasharray:none;stroke-opacity:0.2"
         d="M -40,585.35431 C -20,565.35431 0,505.35431 40,505.35431 C 80,505.35431 80,585.35431 120,585.35431 C 160,585.35431 160,505.35431 200,505.35431 C 240,505.35431 240,585.35431 280,585.35431 C 320,585.35431 320,505.35431 360,505.35431 C 400,505.35431 400,585.35431 440,585.35431 C 480,585.35431 480,505.35431 520,505.35431 C 560,505.35431 560,585.35431 600,585.35431 C 640,585.35431 640,505.35431 680,505.35431 C 720,505.35431 720,585.35431 760,585.35431 C 800,585.35431 800,505.35431 840,505.35431 C 880,505.35431 880,585.35431 920,585.35431 C 960,585.35431 960,505.35431 1000,505.35431 C 1040,505.35431 1040,585.35431 1080,585.35431 C 1120,585.35431 1140,525.35431 1160,505.35431"
         id="path8250"
         sodipodi:nodetypes="czzzzzzzzzzzzzzz" />
      <path
         sodipodi:nodetypes="czzzzzzzzzzzzzzz"
         id="path8252"
         d="M -21.771654,585.35431 C -1.7716535,565.35431 18.228346,505.35431 58.228346,505.35431 C 98.228346,505.35431 98.228346,585.35431 138.22835,585.35431 C 178.22835,585.35431 178.22835,505.35431 218.22835,505.35431 C 258.22835,505.35431 258.22835,585.35431 298.22835,585.35431 C 338.22835,585.35431 338.22835,505.35431 378.22835,505.35431 C 418.22835,505.35431 418.22835,585.35431 458.22835,585.35431 C 498.22835,585.35431 498.22835,505.35431 538.22835,505.35431 C 578.22835,505.35431 578.22835,585.35431 618.22835,585.35431 C 658.22835,585.35431 658.22835,505.35431 698.22835,505.35431 C 738.22835,505.35431 738.22835,585.35431 778.22835,585.35431 C 818.22835,585.35431 818.22835,505.35431 858.22835,505.35431 C 898.22835,505.35431 898.22835,585.35431 938.22835,585.35431 C 978.22835,585.35431 978.22835,505.35431 1018.2283,505.35431 C 1058.2283,505.35431 1058.2283,585.35431 1098.2283,585.35431 C 1138.2283,585.35431 1158.2283,525.35431 1178.2283,505.35431"
         style="fill:none;fill-rule:evenodd;stroke:#ffffff;stroke-width:3.54330707;stroke-linecap:round;stroke-linejoin:miter;stroke-miterlimit:4;stroke-dasharray:none;stroke-opacity:0.2" />
    </g>
    <g
       style="stroke:#ffffff;stroke-opacity:0.08235294"
       id="g8254"
       transform="matrix(7.4637132,0,0,7.4637132,-3657.1812,-3693.2422)">
      <path
         sodipodi:nodetypes="czzzzzzzzzzzzzzz"
         id="path8256"
         d="M -40,585.35431 C -20,565.35431 0,505.35431 40,505.35431 C 80,505.35431 80,585.35431 120,585.35431 C 160,585.35431 160,505.35431 200,505.35431 C 240,505.35431 240,585.35431 280,585.35431 C 320,585.35431 320,505.35431 360,505.35431 C 400,505.35431 400,585.35431 440,585.35431 C 480,585.35431 480,505.35431 520,505.35431 C 560,505.35431 560,585.35431 600,585.35431 C 640,585.35431 640,505.35431 680,505.35431 C 720,505.35431 720,585.35431 760,585.35431 C 800,585.35431 800,505.35431 840,505.35431 C 880,505.35431 880,585.35431 920,585.35431 C 960,585.35431 960,505.35431 1000,505.35431 C 1040,505.35431 1040,585.35431 1080,585.35431 C 1120,585.35431 1140,525.35431 1160,505.35431"
         style="fill:none;fill-rule:evenodd;stroke:#ffffff;stroke-width:3.54330707;stroke-linecap:round;stroke-linejoin:miter;stroke-miterlimit:4;stroke-dasharray:none;stroke-opacity:0.08235294" />
      <path
         style="fill:none;fill-rule:evenodd;stroke:#ffffff;stroke-width:3.54330707;stroke-linecap:round;stroke-linejoin:miter;stroke-miterlimit:4;stroke-dasharray:none;stroke-opacity:0.08235294"
         d="M -21.771654,585.35431 C -1.7716535,565.35431 18.228346,505.35431 58.228346,505.35431 C 98.228346,505.35431 98.228346,585.35431 138.22835,585.35431 C 178.22835,585.35431 178.22835,505.35431 218.22835,505.35431 C 258.22835,505.35431 258.22835,585.35431 298.22835,585.35431 C 338.22835,585.35431 338.22835,505.35431 378.22835,505.35431 C 418.22835,505.35431 418.22835,585.35431 458.22835,585.35431 C 498.22835,585.35431 498.22835,505.35431 538.22835,505.35431 C 578.22835,505.35431 578.22835,585.35431 618.22835,585.35431 C 658.22835,585.35431 658.22835,505.35431 698.22835,505.35431 C 738.22835,505.35431 738.22835,585.35431 778.22835,585.35431 C 818.22835,585.35431 818.22835,505.35431 858.22835,505.35431 C 898.22835,505.35431 898.22835,585.35431 938.22835,585.35431 C 978.22835,585.35431 978.22835,505.35431 1018.2283,505.35431 C 1058.2283,505.35431 1058.2283,585.35431 1098.2283,585.35431 C 1138.2283,585.35431 1158.2283,525.35431 1178.2283,505.35431"
         id="path8258"
         sodipodi:nodetypes="czzzzzzzzzzzzzzz" />
    </g>
    <path
       style="font-size:12px;font-style:normal;font-weight:normal;text-align:center;text-anchor:middle;fill:#ffffff;fill-opacity:1;stroke:none;stroke-width:1px;stroke-linecap:butt;stroke-linejoin:miter;stroke-opacity:1;font-family:Bitstream Vera Sans"
       d="M 715.87309,160.84231 L 722.85709,150.51031 L 723.90109,148.20631 L 723.90109,163.07431 L 728.97709,163.07431 L 728.58109,159.97831 L 728.58109,139.02631 L 725.44909,139.02631 L 716.26909,153.31831 L 706.22509,139.02631 L 702.51709,139.02631 L 703.02109,142.73431 L 703.02109,163.07431 L 707.55709,163.07431 L 707.16109,159.97831 L 707.16109,148.17031 L 708.34909,150.51031 L 715.87309,160.84231 M 736.05221,150.25831 C 736.05221,150.25831 738.14022,147.55831 740.98421,147.55831 C 742.49621,147.55831 743.43221,148.63831 743.43221,151.15831 L 743.43221,151.84231 C 737.02422,152.05831 733.28021,155.04631 733.28021,158.82631 C 733.28021,161.23831 735.40422,163.54231 738.53621,163.54231 C 740.51621,163.54231 742.56821,162.64231 743.97221,161.23831 C 744.29621,162.46231 745.19621,163.47031 745.19621,163.47031 L 749.73221,162.96631 C 749.73221,162.96631 747.89621,160.80631 747.89621,158.64631 L 747.89621,149.32231 C 747.89621,145.57831 744.72821,144.35431 741.74021,144.35431 C 736.88022,144.35431 734.21621,147.09031 734.21621,147.09031 L 736.05221,150.25831 M 740.01221,160.23031 C 738.57221,160.23031 737.88821,159.25831 737.88821,158.25031 C 737.88821,155.55031 741.66822,155.15431 743.43221,155.01031 L 743.43221,158.68231 C 742.64021,159.47431 741.12821,160.23031 740.01221,160.23031 M 758.81996,141.15031 L 753.99596,141.69031 L 753.99596,144.89431 L 751.79996,144.89431 L 751.79996,148.24231 L 753.99596,148.24231 L 753.99596,157.71031 C 753.99596,161.92231 755.54397,163.54231 758.60396,163.54231 C 762.52796,163.54231 764.54396,161.70631 764.54396,161.70631 L 764.07596,157.78231 C 763.24796,158.50231 761.26796,159.47431 759.93596,159.47431 C 759.07196,159.47431 758.42396,159.11431 758.42396,157.81831 L 758.42396,148.24231 L 762.67196,148.24231 L 763.82396,144.89431 L 758.45996,144.89431 L 758.81996,141.15031 M 774.40459,144.35431 C 768.39259,144.35431 765.83659,149.17832 765.83659,154.43431 C 765.83659,159.07831 768.68059,163.54231 774.04459,163.54231 C 778.72458,163.54231 781.60459,160.98631 781.60459,160.98631 L 780.95659,157.31431 C 780.95659,157.31431 778.04059,159.87031 774.90859,159.87031 C 772.06459,159.87031 770.58859,157.56631 770.40859,154.65031 L 780.38059,154.65031 L 781.24459,153.78631 C 781.17259,151.08631 780.70458,144.35431 774.40459,144.35431 M 773.97259,147.41431 C 775.88059,147.41431 776.49259,149.75431 776.60059,151.48231 L 770.58859,151.48231 C 770.98459,149.21431 771.99259,147.41431 773.97259,147.41431 M 812.53028,163.07431 L 812.13428,160.05031 L 812.13428,148.96231 C 812.13428,145.83031 809.43427,144.35431 806.69828,144.35431 C 802.66628,144.35431 800.54228,146.76631 800.47028,146.87431 C 799.53428,145.25431 797.55427,144.35431 795.57428,144.35431 C 793.59428,144.35431 791.43427,145.18231 789.85028,146.62231 L 789.85028,144.39031 L 784.88228,144.93031 L 785.38628,148.56631 L 785.38628,163.07431 L 790.24628,163.07431 L 789.85028,159.97831 L 789.85028,150.18631 C 789.85028,150.18631 791.61428,148.09831 794.35028,148.09831 C 796.18627,148.09831 796.54628,149.17831 796.54628,152.56231 L 796.54628,163.07431 L 801.40628,163.07431 L 801.01028,160.05031 L 801.01028,150.15031 C 801.01028,150.15031 802.81028,148.09831 805.47428,148.09831 C 807.31027,148.09831 807.67028,149.17831 807.67028,152.56231 L 807.67028,163.07431 L 812.53028,163.07431 M 818.95065,150.25831 C 818.95065,150.25831 821.03865,147.55831 823.88265,147.55831 C 825.39465,147.55831 826.33065,148.63831 826.33065,151.15831 L 826.33065,151.84231 C 819.92266,152.05831 816.17865,155.04631 816.17865,158.82631 C 816.17865,161.23831 818.30265,163.54231 821.43465,163.54231 C 823.41465,163.54231 825.46665,162.64231 826.87065,161.23831 C 827.19465,162.46231 828.09465,163.47031 828.09465,163.47031 L 832.63065,162.96631 C 832.63065,162.96631 830.79465,160.80631 830.79465,158.64631 L 830.79465,149.32231 C 830.79465,145.57831 827.62665,144.35431 824.63865,144.35431 C 819.77866,144.35431 817.11465,147.09031 817.11465,147.09031 L 818.95065,150.25831 M 822.91065,160.23031 C 821.47065,160.23031 820.78665,159.25831 820.78665,158.25031 C 820.78665,155.55031 824.56665,155.15431 826.33065,155.01031 L 826.33065,158.68231 C 825.53865,159.47431 824.02665,160.23031 822.91065,160.23031 M 841.7184,141.15031 L 836.8944,141.69031 L 836.8944,144.89431 L 834.6984,144.89431 L 834.6984,148.24231 L 836.8944,148.24231 L 836.8944,157.71031 C 836.8944,161.92231 838.4424,163.54231 841.5024,163.54231 C 845.4264,163.54231 847.4424,161.70631 847.4424,161.70631 L 846.9744,157.78231 C 846.1464,158.50231 844.1664,159.47431 842.8344,159.47431 C 841.9704,159.47431 841.3224,159.11431 841.3224,157.81831 L 841.3224,148.24231 L 845.5704,148.24231 L 846.7224,144.89431 L 841.3584,144.89431 L 841.7184,141.15031 M 854.74703,144.35431 L 849.77903,144.89431 L 850.28303,148.53031 L 850.28303,163.07431 L 855.14303,163.07431 L 854.74703,159.97831 L 854.74703,144.35431 M 849.92303,139.56631 C 849.92303,140.89831 851.07503,141.97831 852.44303,141.97831 C 853.73902,141.97831 854.85503,140.89831 854.85503,139.56631 C 854.85503,138.16231 853.73902,137.04631 852.44303,137.04631 C 851.07503,137.04631 849.92303,138.16231 849.92303,139.56631 M 858.85834,161.41831 C 858.85834,161.41831 860.87434,163.54231 864.97834,163.54231 C 869.08233,163.54231 871.78234,161.56231 871.78234,157.89031 C 871.78234,151.84232 862.99834,152.16631 862.99834,149.25031 C 862.99834,148.27831 864.07834,147.55831 865.30234,147.55831 C 868.57834,147.55831 870.37834,149.17831 870.37834,149.17831 L 871.20634,145.57831 C 871.20634,145.57831 869.22634,144.39031 866.05834,144.39031 C 862.38634,144.39031 858.89434,145.75831 858.89434,150.18631 C 858.89434,155.47831 867.64234,155.55031 867.64234,158.35831 C 867.64234,159.58231 866.31034,160.15831 865.01434,160.15831 C 862.20634,160.15831 859.29034,157.63831 859.29034,157.63831 L 858.85834,161.41831 M 880.41278,135.71431 L 875.44478,136.25431 L 875.94878,139.89031 L 875.94878,163.07431 L 880.80878,163.07431 L 880.41278,159.97831 L 880.41278,153.96631 L 887.00078,163.07431 L 892.58078,163.07431 L 884.91278,153.13831 L 892.22078,144.89431 L 886.20878,144.89431 L 885.34478,146.83831 L 880.41278,153.10231 L 880.41278,135.71431 M 614.83587,195.81262 L 614.83587,227.45262 L 622.73187,227.45262 L 622.11587,222.63662 L 622.11587,211.04462 L 632.53187,211.04462 L 633.93187,205.50062 L 622.11587,205.50062 L 622.11587,195.58862 L 635.49987,195.58862 L 635.49987,190.04462 L 614.05187,190.04462 L 614.83587,195.81262 M 665.27787,212.66862 C 665.27787,202.75663 659.73386,198.33262 652.39787,198.33262 C 642.87788,198.33262 637.55787,205.33263 637.55787,213.67662 C 637.55787,220.73261 641.98188,228.18062 650.49387,228.18062 C 659.84586,228.18062 665.27787,221.01261 665.27787,212.66862 M 644.94987,213.22862 C 644.94987,207.62862 647.35787,203.31662 651.38987,203.31662 C 655.42187,203.31662 657.82987,207.62862 657.82987,213.22862 C 657.82987,218.82861 655.42187,223.19662 651.38987,223.19662 C 647.35787,223.19662 644.94987,218.82861 644.94987,213.22862 M 690.89787,200.40462 C 689.55387,199.00462 687.98587,198.33262 686.24987,198.33262 C 681.37787,198.33262 678.63387,203.54062 678.63387,203.54062 L 678.63387,198.44462 L 670.90587,199.28462 L 671.68987,204.94062 L 671.68987,227.45262 L 679.24987,227.45262 L 678.63387,222.63662 L 678.63387,213.00462 C 678.63387,208.63662 682.10587,205.05262 685.01787,205.05262 C 687.14587,205.05262 688.76987,206.56462 688.76987,206.56462 L 690.89787,200.40462 M 737.64824,227.45262 L 737.03224,222.74862 L 737.03224,205.50062 C 737.03224,200.62862 732.83224,198.33262 728.57624,198.33262 C 722.30425,198.33262 719.00024,202.08462 718.88824,202.25262 C 717.43225,199.73262 714.35224,198.33262 711.27224,198.33262 C 708.19225,198.33262 704.83224,199.62062 702.36824,201.86062 L 702.36824,198.38862 L 694.64024,199.22862 L 695.42424,204.88462 L 695.42424,227.45262 L 702.98424,227.45262 L 702.36824,222.63662 L 702.36824,207.40462 C 702.36824,207.40462 705.11225,204.15662 709.36824,204.15662 C 712.22424,204.15662 712.78424,205.83662 712.78424,211.10062 L 712.78424,227.45262 L 720.34424,227.45262 L 719.72824,222.74862 L 719.72824,207.34862 C 719.72824,207.34862 722.52825,204.15662 726.67224,204.15662 C 729.52824,204.15662 730.08824,205.83662 730.08824,211.10062 L 730.08824,227.45262 L 737.64824,227.45262 M 756.76349,198.33262 C 747.4115,198.33262 743.43549,205.83663 743.43549,214.01262 C 743.43549,221.23661 747.8595,228.18062 756.20349,228.18062 C 763.48349,228.18062 767.96349,224.20462 767.96349,224.20462 L 766.95549,218.49262 C 766.95549,218.49262 762.41949,222.46862 757.54749,222.46862 C 753.1235,222.46862 750.82749,218.88461 750.54749,214.34862 L 766.05949,214.34862 L 767.40349,213.00462 C 767.29149,208.80462 766.56348,198.33262 756.76349,198.33262 M 756.09149,203.09262 C 759.05949,203.09262 760.01149,206.73262 760.17949,209.42062 L 750.82749,209.42062 C 751.44349,205.89262 753.0115,203.09262 756.09149,203.09262 M 780.79012,184.89262 L 773.06212,185.73262 L 773.84612,191.38862 L 773.84612,227.45262 L 781.40612,227.45262 L 780.79012,222.63662 L 780.79012,184.89262 M 787.18287,224.87662 C 787.18287,224.87662 790.31888,228.18062 796.70287,228.18062 C 803.08686,228.18062 807.28687,225.10061 807.28687,219.38862 C 807.28687,209.98063 793.62287,210.48461 793.62287,205.94862 C 793.62287,204.43662 795.30287,203.31662 797.20687,203.31662 C 802.30286,203.31662 805.10287,205.83662 805.10287,205.83662 L 806.39087,200.23662 C 806.39087,200.23662 803.31086,198.38862 798.38287,198.38862 C 792.67088,198.38862 787.23887,200.51662 787.23887,207.40462 C 787.23887,215.63661 800.84687,215.74862 800.84687,220.11662 C 800.84687,222.02062 798.77487,222.91662 796.75887,222.91662 C 792.39087,222.91662 787.85487,218.99662 787.85487,218.99662 L 787.18287,224.87662 M 815.44799,207.51662 C 815.44799,207.51662 818.696,203.31662 823.11999,203.31662 C 825.47199,203.31662 826.92799,204.99662 826.92799,208.91662 L 826.92799,209.98062 C 816.96,210.31662 811.13599,214.96462 811.13599,220.84462 C 811.13599,224.59661 814.44,228.18062 819.31199,228.18062 C 822.39199,228.18062 825.584,226.78061 827.76799,224.59662 C 828.27199,226.50062 829.67199,228.06862 829.67199,228.06862 L 836.72799,227.28462 C 836.72799,227.28462 833.87199,223.92461 833.87199,220.56462 L 833.87199,206.06062 C 833.87199,200.23662 828.94399,198.33262 824.29599,198.33262 C 816.736,198.33262 812.59199,202.58862 812.59199,202.58862 L 815.44799,207.51662 M 821.60799,223.02862 C 819.368,223.02862 818.30399,221.51662 818.30399,219.94862 C 818.30399,215.74862 824.184,215.13262 826.92799,214.90862 L 826.92799,220.62062 C 825.696,221.85262 823.34399,223.02862 821.60799,223.02862 M 885.30449,227.45262 L 884.68849,222.74862 L 884.68849,205.50062 C 884.68849,200.62862 880.48849,198.33262 876.23249,198.33262 C 869.9605,198.33262 866.65649,202.08462 866.54449,202.25262 C 865.0885,199.73262 862.00849,198.33262 858.92849,198.33262 C 855.8485,198.33262 852.48849,199.62062 850.02449,201.86062 L 850.02449,198.38862 L 842.29649,199.22862 L 843.08049,204.88462 L 843.08049,227.45262 L 850.64049,227.45262 L 850.02449,222.63662 L 850.02449,207.40462 C 850.02449,207.40462 852.7685,204.15662 857.02449,204.15662 C 859.88049,204.15662 860.44049,205.83662 860.44049,211.10062 L 860.44049,227.45262 L 868.00049,227.45262 L 867.38449,222.74862 L 867.38449,207.34862 C 867.38449,207.34862 870.1845,204.15662 874.32849,204.15662 C 877.18449,204.15662 877.74449,205.83662 877.74449,211.10062 L 877.74449,227.45262 L 885.30449,227.45262 M 900.55574,184.89262 L 892.82774,185.73262 L 893.61174,191.38862 L 893.61174,227.45262 L 901.17174,227.45262 L 900.55574,222.63662 L 900.55574,184.89262 M 916.41249,198.33262 L 908.68449,199.17262 L 909.46849,204.82862 L 909.46849,227.45262 L 917.02849,227.45262 L 916.41249,222.63662 L 916.41249,198.33262 M 908.90849,190.88462 C 908.90849,192.95662 910.7005,194.63662 912.82849,194.63662 C 914.84449,194.63662 916.58049,192.95662 916.58049,190.88462 C 916.58049,188.70062 914.84449,186.96462 912.82849,186.96462 C 910.7005,186.96462 908.90849,188.70062 908.90849,190.88462 M 950.35987,227.45262 L 949.74387,222.74862 L 949.74387,205.50062 C 949.74387,200.62862 945.54387,198.33262 941.28787,198.33262 C 938.20787,198.33262 934.84787,199.56462 932.38387,201.80462 L 932.38387,198.38862 L 924.65587,199.22862 L 925.43987,204.88462 L 925.43987,227.45262 L 932.99987,227.45262 L 932.38387,222.63662 L 932.38387,207.34862 C 932.38387,207.34862 935.12787,204.15662 939.38387,204.15662 C 942.23987,204.15662 942.79987,205.83662 942.79987,211.10062 L 942.79987,227.45262 L 950.35987,227.45262 M 967.76187,220.67662 C 974.59386,220.67662 979.85787,216.02861 979.85787,209.36462 C 979.85787,207.18062 979.29787,205.16462 977.95387,203.48462 L 981.87387,203.48462 L 983.04987,199.17262 L 974.87387,199.17262 L 973.86587,199.90062 C 973.36187,199.45262 970.67387,198.33262 968.37787,198.33262 C 961.26588,198.33262 956.16987,203.26062 956.16987,209.81262 C 956.16987,213.34061 958.29787,216.75662 960.76187,218.38062 C 959.02587,220.11662 957.28987,222.30062 957.28987,224.54062 C 957.28987,233.66861 975.48987,227.06062 975.48987,232.49262 C 975.48987,235.23661 971.51387,236.07662 968.26587,236.07662 C 961.20988,236.07662 959.41787,231.37262 959.41787,231.37262 L 955.38587,235.06862 C 955.38587,235.06862 957.40188,241.06062 967.64987,241.06062 C 974.64986,241.06062 982.04187,237.92461 982.04187,231.31662 C 982.04187,219.83663 963.11387,226.50061 963.11387,222.30062 C 963.11387,221.62862 963.56187,220.84462 964.28987,220.11662 C 964.28987,220.11662 965.46587,220.67662 967.76187,220.67662 M 963.28187,209.53262 C 963.28187,205.72462 965.57787,203.20462 968.09787,203.20462 C 970.61787,203.20462 972.74587,205.72462 972.74587,209.53262 C 972.74587,213.28461 970.61787,215.80462 968.09787,215.80462 C 965.57787,215.80462 963.28187,213.28461 963.28187,209.53262 M 700.11114,259.51783 L 703.60314,254.35183 L 704.12514,253.19983 L 704.12514,260.63383 L 706.66314,260.63383 L 706.46514,259.08583 L 706.46514,248.60983 L 704.89914,248.60983 L 700.30914,255.75583 L 695.28714,248.60983 L 693.43314,248.60983 L 693.68514,250.46383 L 693.68514,260.63383 L 695.95314,260.63383 L 695.75514,259.08583 L 695.75514,253.18183 L 696.34914,254.35183 L 700.11114,259.51783 M 713.1347,251.27383 C 710.1287,251.27383 708.8507,253.68584 708.8507,256.31383 C 708.8507,258.63583 710.2727,260.86783 712.9547,260.86783 C 715.2947,260.86783 716.7347,259.58983 716.7347,259.58983 L 716.4107,257.75383 C 716.4107,257.75383 714.9527,259.03183 713.3867,259.03183 C 711.9647,259.03183 711.2267,257.87983 711.1367,256.42183 L 716.1227,256.42183 L 716.5547,255.98983 C 716.5187,254.63984 716.28469,251.27383 713.1347,251.27383 M 712.9187,252.80383 C 713.8727,252.80383 714.1787,253.97383 714.2327,254.83783 L 711.2267,254.83783 C 711.4247,253.70384 711.9287,252.80383 712.9187,252.80383 M 725.80754,246.82783 L 723.32354,247.09783 L 723.57554,248.91583 L 723.57554,251.36383 C 723.57554,251.36383 722.83754,251.27383 722.53154,251.27383 C 719.72354,251.27383 717.77954,253.57784 717.77954,256.25983 C 717.77954,259.24783 719.45354,260.84983 721.37954,260.84983 C 722.18954,260.84983 723.28754,260.36383 723.84554,259.75183 C 724.06154,260.43583 724.45754,260.81383 724.45754,260.81383 L 726.72554,260.56183 C 726.72554,260.56183 725.80754,259.48183 725.80754,258.40183 L 725.80754,246.82783 M 721.95554,259.17583 C 720.98354,259.17583 720.17354,258.05983 720.17354,256.09783 C 720.17354,254.29784 721.10954,252.87583 722.24354,252.87583 C 722.94554,252.87583 723.57554,252.98383 723.57554,252.98383 L 723.57554,258.32983 C 723.01754,258.81583 722.42354,259.17583 721.95554,259.17583 M 741.31454,255.88183 C 741.31454,252.69584 739.53254,251.27383 737.17454,251.27383 C 734.11454,251.27383 732.40454,253.52384 732.40454,256.20583 C 732.40454,258.47383 733.82654,260.86783 736.56254,260.86783 C 739.56854,260.86783 741.31454,258.56383 741.31454,255.88183 M 734.78054,256.06183 C 734.78054,254.26184 735.55454,252.87583 736.85054,252.87583 C 738.14654,252.87583 738.92054,254.26184 738.92054,256.06183 C 738.92054,257.86183 738.14654,259.26583 736.85054,259.26583 C 735.55454,259.26583 734.78054,257.86183 734.78054,256.06183 M 743.37554,264.95383 L 745.80554,264.95383 L 745.60754,263.40583 L 745.60754,260.79583 C 745.96754,260.83183 746.34554,260.86783 746.65154,260.86783 C 749.45954,260.86783 751.40354,258.56383 751.40354,255.88183 C 751.40354,252.89384 749.72954,251.27383 747.80354,251.27383 C 747.08354,251.27383 746.32754,251.61583 745.60754,252.28183 L 745.60754,251.27383 L 743.12354,251.54383 L 743.37554,253.36183 L 743.37554,264.95383 M 747.22754,253.12783 C 748.19954,253.12783 749.00954,254.08184 749.00954,256.04383 C 749.00954,257.84383 748.07354,259.24783 746.93954,259.24783 C 746.23754,259.24783 745.60754,259.17583 745.60754,259.17583 L 745.60754,253.88383 C 745.60754,253.88383 746.21954,253.12783 747.22754,253.12783 M 756.4517,258.45583 C 758.6477,258.45583 760.3397,256.96183 760.3397,254.81983 C 760.3397,254.11783 760.1597,253.46983 759.7277,252.92983 L 760.9877,252.92983 L 761.3657,251.54383 L 758.7377,251.54383 L 758.4137,251.77783 C 758.2517,251.63383 757.3877,251.27383 756.6497,251.27383 C 754.3637,251.27383 752.7257,252.85784 752.7257,254.96383 C 752.7257,256.09783 753.4097,257.19583 754.2017,257.71783 C 753.6437,258.27583 753.0857,258.97783 753.0857,259.69783 C 753.0857,262.63183 758.9357,260.50784 758.9357,262.25383 C 758.9357,263.13583 757.6577,263.40583 756.6137,263.40583 C 754.3457,263.40583 753.7697,261.89383 753.7697,261.89383 L 752.4737,263.08183 C 752.4737,263.08183 753.1217,265.00783 756.4157,265.00783 C 758.6657,265.00783 761.0417,263.99983 761.0417,261.87583 C 761.0417,258.18584 754.9577,260.32783 754.9577,258.97783 C 754.9577,258.76183 755.1017,258.50983 755.3357,258.27583 C 755.3357,258.27583 755.7137,258.45583 756.4517,258.45583 M 755.0117,254.87383 C 755.0117,253.64984 755.7497,252.83983 756.5597,252.83983 C 757.3697,252.83983 758.0537,253.64984 758.0537,254.87383 C 758.0537,256.07983 757.3697,256.88983 756.5597,256.88983 C 755.7497,256.88983 755.0117,256.07983 755.0117,254.87383 M 763.35695,254.22583 C 763.35695,254.22583 764.40095,252.87583 765.82295,252.87583 C 766.57895,252.87583 767.04695,253.41584 767.04695,254.67583 L 767.04695,255.01783 C 763.84295,255.12583 761.97095,256.61984 761.97095,258.50983 C 761.97095,259.71583 763.03295,260.86783 764.59895,260.86783 C 765.58895,260.86783 766.61495,260.41783 767.31695,259.71583 C 767.47895,260.32783 767.92895,260.83183 767.92895,260.83183 L 770.19695,260.57983 C 770.19695,260.57983 769.27895,259.49983 769.27895,258.41983 L 769.27895,253.75783 C 769.27895,251.88584 767.69495,251.27383 766.20095,251.27383 C 763.77095,251.27383 762.43895,252.64183 762.43895,252.64183 L 763.35695,254.22583 M 765.33695,259.21183 C 764.61695,259.21183 764.27495,258.72583 764.27495,258.22183 C 764.27495,256.87184 766.16495,256.67383 767.04695,256.60183 L 767.04695,258.43783 C 766.65095,258.83383 765.89495,259.21183 765.33695,259.21183 M 780.01482,251.29183 L 777.62082,251.63383 L 775.62282,257.08783 L 775.33482,258.29383 L 775.13682,257.08783 L 773.30082,251.29183 L 770.78082,251.61583 L 771.66282,253.28983 L 774.14682,260.52583 L 776.09082,260.86783 L 780.01482,251.29183 M 784.95892,251.27383 C 781.95292,251.27383 780.67492,253.68584 780.67492,256.31383 C 780.67492,258.63583 782.09692,260.86783 784.77892,260.86783 C 787.11891,260.86783 788.55892,259.58983 788.55892,259.58983 L 788.23492,257.75383 C 788.23492,257.75383 786.77691,259.03183 785.21092,259.03183 C 783.78892,259.03183 783.05092,257.87983 782.96092,256.42183 L 787.94692,256.42183 L 788.37892,255.98983 C 788.34292,254.63984 788.10891,251.27383 784.95892,251.27383 M 784.74292,252.80383 C 785.69692,252.80383 786.00292,253.97383 786.05692,254.83783 L 783.05092,254.83783 C 783.24892,253.70384 783.75292,252.80383 784.74292,252.80383 M 796.62376,251.93983 C 796.19176,251.48983 795.68776,251.27383 795.12976,251.27383 C 793.56376,251.27383 792.68176,252.94783 792.68176,252.94783 L 792.68176,251.30983 L 790.19776,251.57983 L 790.44976,253.39783 L 790.44976,260.63383 L 792.87976,260.63383 L 792.68176,259.08583 L 792.68176,255.98983 C 792.68176,254.58584 793.79776,253.43383 794.73376,253.43383 C 795.41776,253.43383 795.93976,253.91983 795.93976,253.91983 L 796.62376,251.93983 M 810.64267,255.88183 C 810.64267,252.69584 808.86066,251.27383 806.50267,251.27383 C 803.44267,251.27383 801.73267,253.52384 801.73267,256.20583 C 801.73267,258.47383 803.15467,260.86783 805.89067,260.86783 C 808.89666,260.86783 810.64267,258.56383 810.64267,255.88183 M 804.10867,256.06183 C 804.10867,254.26184 804.88267,252.87583 806.17867,252.87583 C 807.47467,252.87583 808.24867,254.26184 808.24867,256.06183 C 808.24867,257.86183 807.47467,259.26583 806.17867,259.26583 C 804.88267,259.26583 804.10867,257.86183 804.10867,256.06183 M 815.61967,258.45583 C 817.81566,258.45583 819.50767,256.96183 819.50767,254.81983 C 819.50767,254.11783 819.32767,253.46983 818.89567,252.92983 L 820.15567,252.92983 L 820.53367,251.54383 L 817.90567,251.54383 L 817.58167,251.77783 C 817.41967,251.63383 816.55567,251.27383 815.81767,251.27383 C 813.53167,251.27383 811.89367,252.85784 811.89367,254.96383 C 811.89367,256.09783 812.57767,257.19583 813.36967,257.71783 C 812.81167,258.27583 812.25367,258.97783 812.25367,259.69783 C 812.25367,262.63183 818.10367,260.50784 818.10367,262.25383 C 818.10367,263.13583 816.82567,263.40583 815.78167,263.40583 C 813.51367,263.40583 812.93767,261.89383 812.93767,261.89383 L 811.64167,263.08183 C 811.64167,263.08183 812.28967,265.00783 815.58367,265.00783 C 817.83366,265.00783 820.20967,263.99983 820.20967,261.87583 C 820.20967,258.18584 814.12567,260.32783 814.12567,258.97783 C 814.12567,258.76183 814.26967,258.50983 814.50367,258.27583 C 814.50367,258.27583 814.88167,258.45583 815.61967,258.45583 M 814.17967,254.87383 C 814.17967,253.64984 814.91767,252.83983 815.72767,252.83983 C 816.53767,252.83983 817.22167,253.64984 817.22167,254.87383 C 817.22167,256.07983 816.53767,256.88983 815.72767,256.88983 C 814.91767,256.88983 814.17967,256.07983 814.17967,254.87383 M 828.71692,246.95383 L 826.23292,247.22383 L 826.48492,249.04183 L 826.48492,260.63383 L 828.91492,260.63383 L 828.71692,259.08583 L 828.71692,246.95383 M 837.59373,248.78983 L 836.22573,248.78983 L 835.63173,251.27383 L 835.54173,251.27383 C 832.58973,251.27383 830.77173,253.32584 830.77173,256.22383 C 830.77173,256.49383 830.82573,259.73384 833.43573,260.63383 L 832.73373,263.63983 L 834.04773,263.63983 L 834.71373,260.84983 C 834.78573,260.84983 834.85773,260.86783 834.92973,260.86783 C 837.93573,260.86783 839.68173,258.56383 839.68173,255.88183 C 839.68173,253.37984 838.56573,251.95783 836.94573,251.47183 L 837.59373,248.78983 M 837.28773,256.06183 C 837.28773,257.86183 836.51373,259.26583 835.21773,259.26583 L 835.09173,259.26583 L 836.47773,253.45183 C 836.99973,254.02783 837.28773,254.96384 837.28773,256.06183 M 833.14773,256.06183 C 833.14773,254.26184 833.92173,252.87583 835.21773,252.87583 L 835.25373,252.87583 L 833.90373,258.63583 C 833.41773,258.05983 833.14773,257.14183 833.14773,256.06183 M 840.89673,259.80583 C 840.89673,259.80583 841.90473,260.86783 843.95673,260.86783 C 846.00873,260.86783 847.35873,259.87783 847.35873,258.04183 C 847.35873,255.01784 842.96673,255.17983 842.96673,253.72183 C 842.96673,253.23583 843.50673,252.87583 844.11873,252.87583 C 845.75673,252.87583 846.65673,253.68583 846.65673,253.68583 L 847.07073,251.88583 C 847.07073,251.88583 846.08073,251.29183 844.49673,251.29183 C 842.66073,251.29183 840.91473,251.97584 840.91473,254.18983 C 840.91473,256.83583 845.28873,256.87184 845.28873,258.27583 C 845.28873,258.88783 844.62273,259.17583 843.97473,259.17583 C 842.57073,259.17583 841.11273,257.91583 841.11273,257.91583 L 840.89673,259.80583 M 857.45195,260.63383 L 857.25395,259.12183 L 857.25395,253.57783 C 857.25395,252.01184 855.90395,251.27383 854.53595,251.27383 C 853.54595,251.27383 852.46595,251.66983 851.67395,252.38983 L 851.67395,251.29183 L 849.18995,251.56183 L 849.44195,253.37983 L 849.44195,260.63383 L 851.87195,260.63383 L 851.67395,259.08583 L 851.67395,254.17183 C 851.67395,254.17183 852.55595,253.14583 853.92395,253.14583 C 854.84195,253.14583 855.02195,253.68584 855.02195,255.37783 L 855.02195,260.63383 L 857.45195,260.63383 M 862.32545,251.27383 L 859.84145,251.54383 L 860.09345,253.36183 L 860.09345,260.63383 L 862.52345,260.63383 L 862.32545,259.08583 L 862.32545,251.27383 M 859.91345,248.87983 C 859.91345,249.54583 860.48945,250.08583 861.17345,250.08583 C 861.82145,250.08583 862.37945,249.54583 862.37945,248.87983 C 862.37945,248.17783 861.82145,247.61983 861.17345,247.61983 C 860.48945,247.61983 859.91345,248.17783 859.91345,248.87983 M 873.2371,260.63383 L 873.0391,259.12183 L 873.0391,253.57783 C 873.0391,252.01184 871.6891,251.27383 870.3211,251.27383 C 869.3311,251.27383 868.2511,251.66983 867.4591,252.38983 L 867.4591,251.29183 L 864.9751,251.56183 L 865.2271,253.37983 L 865.2271,260.63383 L 867.6571,260.63383 L 867.4591,259.08583 L 867.4591,254.17183 C 867.4591,254.17183 868.34111,253.14583 869.7091,253.14583 C 870.6271,253.14583 870.8071,253.68584 870.8071,255.37783 L 870.8071,260.63383 L 873.2371,260.63383 M 878.8306,258.45583 C 881.0266,258.45583 882.7186,256.96183 882.7186,254.81983 C 882.7186,254.11783 882.5386,253.46983 882.1066,252.92983 L 883.3666,252.92983 L 883.7446,251.54383 L 881.1166,251.54383 L 880.7926,251.77783 C 880.6306,251.63383 879.7666,251.27383 879.0286,251.27383 C 876.74261,251.27383 875.1046,252.85784 875.1046,254.96383 C 875.1046,256.09783 875.7886,257.19583 876.5806,257.71783 C 876.0226,258.27583 875.4646,258.97783 875.4646,259.69783 C 875.4646,262.63183 881.3146,260.50784 881.3146,262.25383 C 881.3146,263.13583 880.0366,263.40583 878.9926,263.40583 C 876.72461,263.40583 876.1486,261.89383 876.1486,261.89383 L 874.8526,263.08183 C 874.8526,263.08183 875.50061,265.00783 878.7946,265.00783 C 881.0446,265.00783 883.4206,263.99983 883.4206,261.87583 C 883.4206,258.18584 877.3366,260.32783 877.3366,258.97783 C 877.3366,258.76183 877.4806,258.50983 877.7146,258.27583 C 877.7146,258.27583 878.0926,258.45583 878.8306,258.45583 M 877.3906,254.87383 C 877.3906,253.64984 878.1286,252.83983 878.9386,252.83983 C 879.7486,252.83983 880.4326,253.64984 880.4326,254.87383 C 880.4326,256.07983 879.7486,256.88983 878.9386,256.88983 C 878.1286,256.88983 877.3906,256.07983 877.3906,254.87383 M 888.66985,251.27383 C 885.66386,251.27383 884.38585,253.68584 884.38585,256.31383 C 884.38585,258.63583 885.80786,260.86783 888.48985,260.86783 C 890.82985,260.86783 892.26985,259.58983 892.26985,259.58983 L 891.94585,257.75383 C 891.94585,257.75383 890.48785,259.03183 888.92185,259.03183 C 887.49986,259.03183 886.76185,257.87983 886.67185,256.42183 L 891.65785,256.42183 L 892.08985,255.98983 C 892.05385,254.63984 891.81985,251.27383 888.66985,251.27383 M 888.45385,252.80383 C 889.40785,252.80383 889.71385,253.97383 889.76785,254.83783 L 886.76185,254.83783 C 886.95985,253.70384 887.46385,252.80383 888.45385,252.80383 M 900.3347,251.93983 C 899.9027,251.48983 899.3987,251.27383 898.8407,251.27383 C 897.2747,251.27383 896.3927,252.94783 896.3927,252.94783 L 896.3927,251.30983 L 893.9087,251.57983 L 894.1607,253.39783 L 894.1607,260.63383 L 896.5907,260.63383 L 896.3927,259.08583 L 896.3927,255.98983 C 896.3927,254.58584 897.5087,253.43383 898.4447,253.43383 C 899.1287,253.43383 899.6507,253.91983 899.6507,253.91983 L 900.3347,251.93983"
       id="text9301" />
    <path
       style="font-size:12px;font-style:normal;font-weight:normal;fill:#ffffff;fill-opacity:1;stroke:none;font-family:Fontin Sans"
       d="m 765.43513,613.77547 0,10.188 1.8,0 -0.18,-1.35 0,-4.05 3.402,0 0.36,-1.332 -3.762,0 0,-3.78 4.302,0 0,-1.332 -6.156,0 0.234,1.656 m 13.79644,1.566 c -0.324,-0.342 -0.72,-0.504 -1.134,-0.504 -1.638,0 -2.466,1.44 -2.808,2.052 l 0,-1.98 -1.746,0.198 0.234,1.656 0,7.2 1.692,0 -0.18,-1.35 0,-3.24 c 0,-1.602 1.26,-2.934 2.412,-2.934 0.252,0 0.63,0.126 0.918,0.378 l 0.612,-1.476 m 1.86609,2.07 c 0,0 0.9,-1.35 2.556,-1.35 0.738,0 1.35,0.486 1.35,1.926 l 0,0.648 c -2.97,0 -5.058,1.332 -5.058,3.33 0,1.332 1.098,2.232 2.322,2.232 1.116,0 2.376,-0.738 2.862,-1.476 0.018,0.792 0.522,1.476 0.522,1.476 l 1.674,-0.234 c 0,0 -0.81,-0.954 -0.81,-2.034 l 0,-4.77 c 0,-1.692 -1.296,-2.304 -2.7,-2.304 -2.376,0 -3.528,1.386 -3.528,1.386 l 0.81,1.17 m 1.836,5.49 c -0.954,0 -1.368,-0.63 -1.368,-1.206 0,-1.836 2.97,-1.89 3.438,-1.908 l 0,1.998 c -0.36,0.414 -1.278,1.116 -2.07,1.116 m 14.21747,1.062 -0.18,-1.314 0,-5.67 c 0,-1.44 -1.17,-2.124 -2.358,-2.124 -1.188,0 -2.466,0.576 -3.222,1.404 l 0,-1.35 -1.746,0.198 0.234,1.656 0,7.2 1.692,0 -0.18,-1.35 0,-5.022 c 0,0 0.864,-1.332 2.754,-1.332 1.116,0 1.314,0.81 1.314,2.52 l 0,5.184 1.692,0 m 10.62141,0 -4.266,-4.968 3.996,-3.888 -2.286,0 -0.486,0.882 -2.898,3.078 0,-8.694 -1.746,0.198 0.234,1.656 0,11.736 1.692,0 -0.18,-1.35 0,-3.348 3.888,4.698 2.052,0 m 8.5365,-10.584 c 0.27,-0.018 0.54,-0.036 0.774,-0.036 1.74599,0 2.52,0.594 2.52,1.854 0,0.792 -0.378,1.404 -0.684,1.818 -0.036,0 -0.63,-0.126 -1.314,-0.126 l -1.296,0 0,-3.51 m -1.854,-1.26 0.234,1.656 0,10.188 2.718,0 c 3.27599,0 4.428,-1.746 4.428,-3.672 0,-1.71 -0.864,-2.448 -2.034,-2.988 0.468,-0.468 1.35,-1.476 1.35,-2.466 0,-1.872 -1.60201,-2.88 -3.852,-2.808 l -2.844,0.09 m 1.854,6.102 1.026,0 c 1.83599,0 2.79,0.594 2.79,2.232 0,1.098 -0.57601,2.214 -2.502,2.214 l -1.314,0 0,-4.446 m 7.85868,-5.796 c 0,0.504 0.414,0.972 0.936,0.972 0.486,0 0.918,-0.468 0.918,-0.972 0,-0.504 -0.432,-0.936 -0.918,-0.936 -0.522,0 -0.936,0.432 -0.936,0.936 m 1.782,2.484 -1.746,0.198 0.234,1.656 0,7.2 1.692,0 -0.18,-1.35 0,-7.704 m 4.92188,-4.536 -1.746,0.198 0.234,1.656 0,11.736 1.692,0 -0.18,-1.35 0,-12.24 m 4.92187,0 -1.746,0.198 0.234,1.656 0,11.736 1.692,0 -0.18,-1.35 0,-12.24 m 6.59588,4.464 c -2.754,0 -3.978,2.322 -3.978,4.86 0,2.23199 1.35,4.5 3.708,4.5 2.232,0 3.51,-1.242 3.51,-1.242 l -0.252,-1.368 c 0,0 -1.296,1.224 -2.826,1.224 -1.746,0 -2.502,-1.656 -2.538,-3.276 l 5.022,0 0.414,-0.468 c -0.036,-1.116 -0.252,-4.23 -3.06,-4.23 m -0.216,1.17 c 1.242,0 1.584,1.44 1.638,2.376 l -3.708,0 c 0.252,-1.296 0.846,-2.376 2.07,-2.376"
       id="text9385"
       inkscape:connector-curvature="0"
       sodipodi:nodetypes="ccccccccccccccscccccccsscccsscsscccssscccscccccssccccccccssccccccccccccccccccsscscccccsscscccssscccssscccccccccccccccccccccccssccscccccccc" />
  </g>
</svg>
